<svg xmlns="http://www.w3.org/2000/svg" version="1.0" preserveAspectRatio="xMidYMid meet" height="125" width="125" viewBox="119.33 135.13 259.67 197.87">

<g transform="translate(0.000000,500.000000) scale(0.100000,-0.100000)" fill="#000000" stroke="none">
<path d="M2116 3634 c-12 -12 -16 -38 -16 -115 l0 -99 394 0 c381 0 394 -1 419 -20 15 -12 31 -38 37 -58 5 -21 10 -148 10 -287 l1 -250 127 -113 127 -113 3 506 c2 394 -1 513 -11 533 l-12 27 -532 3 c-473 2 -533 0 -547 -14z"/>
<path d="M1840 2136 c-28 -35 11 -93 48 -70 35 22 22 84 -18 84 -10 0 -23 -7 -30 -14z"/>
<path d="M1995 2115 c-14 -13 -25 -36 -25 -50 0 -14 -4 -25 -10 -25 -5 0 -10 -13 -10 -30 0 -16 5 -30 10 -30 6 0 10 -38 10 -95 l0 -95 35 0 35 0 0 95 c0 88 1 95 20 95 16 0 20 7 20 30 0 19 -5 30 -14 30 -23 0 -28 17 -11 33 8 9 15 27 15 41 0 21 -5 26 -25 26 -14 0 -37 -11 -50 -25z"/>
<path d="M2120 2070 c0 -20 -5 -30 -15 -30 -10 0 -15 -10 -15 -30 0 -20 5 -30 15 -30 12 0 15 -15 15 -73 0 -86 13 -105 79 -114 40 -6 41 -5 41 25 0 24 -5 31 -25 36 -23 6 -25 11 -25 66 0 57 1 60 25 60 21 0 25 5 25 30 0 25 -4 30 -25 30 -21 0 -25 5 -25 30 0 28 -3 30 -35 30 -32 0 -35 -2 -35 -30z"/>
<path d="M1229 2027 c-25 -19 -41 -56 -34 -77 8 -24 33 -39 94 -54 29 -7 46 -16 46 -26 0 -18 -43 -26 -58 -11 -6 6 -28 11 -48 11 -32 0 -36 -3 -32 -19 9 -35 41 -54 98 -59 50 -4 57 -2 85 26 60 61 34 100 -82 126 -28 6 -37 29 -17 41 5 4 23 2 38 -5 16 -6 44 -10 62 -8 l34 3 -32 33 c-28 28 -38 32 -85 32 -29 0 -60 -6 -69 -13z"/>
<path d="M1424 2025 c3 -9 20 -66 38 -126 l32 -109 42 0 42 0 12 65 c14 75 25 88 34 43 20 -102 24 -108 66 -108 l39 0 30 98 c49 160 49 152 9 152 l-34 0 -14 -67 c-22 -112 -25 -115 -43 -34 -10 40 -17 80 -17 87 0 10 -13 14 -43 14 l-43 0 -20 -87 -20 -88 -20 85 -20 85 -38 3 c-33 3 -38 1 -32 -13z"/>
<path d="M1830 1915 l0 -125 40 0 40 0 0 125 0 125 -40 0 -40 0 0 -125z"/>
<path d="M2323 2020 c-58 -35 -70 -142 -20 -187 50 -46 103 -55 161 -28 85 40 89 177 6 220 -41 21 -108 19 -147 -5z m125 -73 c29 -60 -33 -123 -78 -82 -26 24 -27 90 -2 104 30 18 66 8 80 -22z"/>
<path d="M2604 2022 c-33 -26 -44 -55 -44 -112 0 -46 4 -56 34 -86 38 -38 85 -45 124 -18 21 15 22 14 22 -18 0 -19 -5 -39 -12 -46 -17 -17 -63 -15 -78 3 -7 8 -28 15 -46 15 -45 0 -46 -28 -3 -64 25 -21 41 -26 88 -26 109 0 131 38 131 235 l0 135 -40 0 c-22 0 -40 -5 -40 -10 0 -7 -6 -7 -19 0 -30 16 -94 12 -117 -8z m120 -58 c24 -24 20 -80 -6 -98 -12 -9 -28 -16 -35 -16 -21 0 -53 38 -53 63 0 55 59 87 94 51z"/>
<path d="M2880 1915 l0 -125 40 0 39 0 3 83 3 82 33 10 c28 8 32 14 32 42 0 38 -21 44 -52 16 -17 -15 -18 -15 -18 0 0 13 -9 17 -40 17 l-40 0 0 -125z"/>
<path d="M3080 2012 c-76 -77 -26 -222 77 -222 16 0 39 7 51 16 20 14 22 14 22 0 0 -12 10 -16 40 -16 l40 0 0 125 0 125 -40 0 c-31 0 -40 -4 -40 -17 0 -15 -1 -15 -18 0 -11 10 -36 17 -61 17 -33 0 -49 -6 -71 -28z m134 -51 c26 -29 18 -82 -15 -100 -24 -13 -29 -13 -53 2 -19 13 -26 26 -26 49 0 60 57 90 94 49z"/>
<path d="M3370 1915 l0 -125 35 0 35 0 0 78 c0 84 14 112 56 112 36 0 44 -20 44 -107 l0 -83 40 0 40 0 0 83 c0 88 8 107 46 107 42 0 54 -25 54 -111 l0 -79 35 0 35 0 0 90 c0 95 -14 142 -45 154 -34 13 -93 6 -117 -14 -25 -19 -26 -19 -43 0 -22 25 -91 27 -123 4 -20 -14 -22 -14 -22 0 0 12 -10 16 -35 16 l-35 0 0 -125z"/>
</g>
</svg>